<svg xmlns="http://www.w3.org/2000/svg" width="800" height="450" viewBox="0 0 800 450"><rect width="800" height="450" fill="#f8fafc"/><rect x="50" y="50" width="700" height="60" rx="4" fill="#1e40af" opacity="0.1"/><rect x="70" y="70" width="120" height="20" rx="2" fill="#1e40af" opacity="0.6"/><rect x="570" y="70" width="80" height="20" rx="2" fill="#1e40af" opacity="0.8"/><rect x="660" y="70" width="70" height="20" rx="2" fill="#1e40af"/><rect x="50" y="130" width="340" height="270" rx="4" fill="#f1f5f9"/><rect x="70" y="150" width="300" height="230" rx="2" fill="#dbeafe"/><circle cx="220" cy="265" r="100" fill="#3b82f6" opacity="0.7"/><rect x="410" y="130" width="340" height="130" rx="4" fill="#f1f5f9"/><rect x="430" y="150" width="300" height="90" rx="2" fill="#bfdbfe"/><rect x="440" y="160" width="40" height="8" rx="1" fill="#3b82f6"/><rect x="440" y="175" width="280" height="4" rx="1" fill="#3b82f6" opacity="0.3"/><rect x="440" y="185" width="260" height="4" rx="1" fill="#3b82f6" opacity="0.3"/><rect x="440" y="195" width="270" height="4" rx="1" fill="#3b82f6" opacity="0.3"/><rect x="440" y="205" width="250" height="4" rx="1" fill="#3b82f6" opacity="0.3"/><rect x="410" y="270" width="340" height="130" rx="4" fill="#f1f5f9"/><rect x="430" y="290" width="300" height="90" rx="2" fill="#dbeafe"/><rect x="440" y="300" width="60" height="8" rx="1" fill="#3b82f6"/><rect x="440" y="320" width="120" height="40" rx="2" fill="#3b82f6" opacity="0.2"/><rect x="570" y="320" width="120" height="40" rx="2" fill="#3b82f6" opacity="0.5"/></svg>
